<svg width="45" height="45" viewBox="0 0 45 45" fill="none" xmlns="http://www.w3.org/2000/svg">
<path fill-rule="evenodd" clip-rule="evenodd" d="M22.4984 5.625C13.1801 5.625 5.625 13.1801 5.625 22.5005C5.625 29.9562 10.4597 36.2806 17.1654 38.5131C18.0097 38.6674 18.3174 38.1464 18.3174 37.6988C18.3174 37.299 18.3029 36.2371 18.2946 34.8293C13.6007 35.8486 12.6104 32.5668 12.6104 32.5668C11.8427 30.6182 10.7363 30.0992 10.7363 30.0992C9.20418 29.0518 10.8524 29.0725 10.8524 29.0725C12.5461 29.1927 13.437 30.8119 13.437 30.8119C14.9423 33.3904 17.3871 32.6455 18.3485 32.2146C18.5018 31.1237 18.9369 30.3799 19.4196 29.9583C15.6726 29.5325 11.7329 28.0842 11.7329 21.6179C11.7329 19.776 12.3907 18.2697 13.4702 17.0898C13.2962 16.663 12.7171 14.9475 13.6349 12.6238C13.6349 12.6238 15.0521 12.1701 18.2759 14.3539C19.6216 13.9799 21.0657 13.7924 22.5005 13.7862C23.9332 13.7924 25.3773 13.9799 26.7251 14.3539C29.9469 12.1701 31.3609 12.6238 31.3609 12.6238C32.2819 14.9475 31.7028 16.663 31.5288 17.0898C32.6103 18.2697 33.264 19.776 33.264 21.6179C33.264 28.1008 29.3181 29.5273 25.5586 29.9448C26.1646 30.4659 26.7044 31.4956 26.7044 33.0702C26.7044 35.3255 26.6837 37.1456 26.6837 37.6988C26.6837 38.1505 26.9872 38.6757 27.8439 38.511C34.5444 36.2744 39.375 29.9541 39.375 22.5005C39.375 13.1801 31.8188 5.625 22.4984 5.625Z" fill="white"/>
</svg>
