<svg width="45" height="45" viewBox="0 0 45 45" fill="none" xmlns="http://www.w3.org/2000/svg">
<path fill-rule="evenodd" clip-rule="evenodd" d="M37.0719 15.1665C37.0847 15.4944 37.0889 15.8222 37.0889 16.1501C37.0889 26.0917 30.0954 37.5687 17.3068 37.5687C13.3784 37.5687 9.72554 36.3167 6.6478 34.1853C7.19184 34.2449 7.74437 34.2897 8.30537 34.2897C11.5626 34.2897 14.5626 33.0822 16.9423 31.0551C13.8999 31.0104 11.3308 28.8193 10.4448 25.8383C10.8702 25.9278 11.3082 25.9726 11.7562 25.9726C12.3878 25.9726 13.0011 25.8833 13.589 25.7044C10.4052 25.0188 8.00721 21.9782 8.00721 18.3265C8.00721 18.2818 8.00721 18.2668 8.00721 18.237C8.94551 18.7885 10.0195 19.1311 11.1598 19.1758C9.29171 17.8195 8.0637 15.5093 8.0637 12.9009C8.0637 11.5296 8.40568 10.2329 9.00766 9.11498C12.4359 13.6759 17.5612 16.6719 23.3394 16.9849C23.2207 16.4334 23.1599 15.8522 23.1599 15.2709C23.1599 11.1124 26.273 7.74384 30.1138 7.74384C32.1133 7.74384 33.9193 8.65317 35.1868 10.1139C36.7738 9.78595 38.2604 9.15998 39.6056 8.29549C39.0842 10.0543 37.9834 11.5296 36.5448 12.4537C37.9523 12.2748 39.2948 11.8727 40.5397 11.2765C39.6057 12.7819 38.4299 14.1082 37.0719 15.1665Z" fill="white"/>
</svg>
